<?xml version="1.0" encoding="UTF-8" standalone="no"?>
<!-- Created with Inkscape (http://www.inkscape.org/) -->

<svg
   xmlns:dc="http://purl.org/dc/elements/1.1/"
   xmlns:cc="http://creativecommons.org/ns#"
   xmlns:rdf="http://www.w3.org/1999/02/22-rdf-syntax-ns#"
   xmlns:svg="http://www.w3.org/2000/svg"
   xmlns="http://www.w3.org/2000/svg"
   version="1.1"
   width="715.74799"
   height="277.79526"
   id="svg5211">
  <defs
     id="defs5213" />
  <metadata
     id="metadata5216">
    <rdf:RDF>
      <cc:Work
         rdf:about="">
        <dc:format>image/svg+xml</dc:format>
        <dc:type
           rdf:resource="http://purl.org/dc/dcmitype/StillImage" />
        <dc:title></dc:title>
      </cc:Work>
    </rdf:RDF>
  </metadata>
  <g
     transform="translate(-16.865016,-396.11589)"
     id="layer1">
    <g
       transform="matrix(4.2915037,0,0,4.2915037,-1413.9241,-1286.5174)"
       id="g5304">
      <g
         transform="matrix(1.25,0,0,-1.25,360.52982,423.59925)"
         id="g5045">
        <path
           d="m 0,0 c 0,1.406 0.367,2.732 1.015,3.903 l -16.607,0 c -0.267,-1.467 -0.415,-2.973 -0.417,-4.516 2.387,0 8.966,0 16.035,0 C 0.01,-0.411 0,-0.208 0,0 z m 28.195,-9.663 4.326,0 c 0.953,2.51 1.513,5.21 1.619,8.03 l -0.892,0 -5.053,-8.03 z m 5.957,9.468 -0.327,-0.52 0.338,0 0,0.034 c 0,0.163 -0.008,0.324 -0.011,0.486 z M 9.23,8.565 c 2.799,0 5.304,-1.159 6.999,-2.986 l 10.23,0 c 0.892,1.413 1.776,2.814 2.469,3.913 l -42.81,0 c -0.551,-1.254 -1.007,-2.559 -1.35,-3.913 l 17.464,0 C 3.921,7.406 6.429,8.565 9.23,8.565 z M 9.076,24.543 c -2.993,0 -5.863,-0.528 -8.523,-1.495 l 17.046,0 c -2.661,0.967 -5.531,1.495 -8.523,1.495 z m 12.339,-3.262 -24.676,0 c -1.128,-0.644 -2.203,-1.37 -3.216,-2.179 l 31.105,0 c -1.013,0.809 -2.088,1.535 -3.213,2.179 z m 1.141,-21.894 c 0.32,0.506 1.501,2.382 2.848,4.516 l -7.961,0 C 18.092,2.732 18.459,1.406 18.459,0 c 0,-0.208 -0.011,-0.411 -0.026,-0.613 2.282,0 3.808,0 4.123,0 z m 4.071,17.949 -35.103,0 c -0.669,-0.661 -1.306,-1.36 -1.901,-2.093 l 38.905,0 c -0.594,0.733 -1.229,1.432 -1.901,2.093 z m 3.174,-6.432 -43.009,0 c 0.428,0.829 0.897,1.634 1.409,2.405 l 41.749,0 c 0.237,-0.353 0.457,-0.713 0.672,-1.078 l -0.821,-1.327"
           id="path5047"
           style="fill:#00adef;fill-opacity:1;fill-rule:nonzero;stroke:none" />
      </g>
      <g
         transform="matrix(1.25,0,0,-1.25,420.51608,426.91175)"
         id="g5049">
        <path
           d="M 0,0 3.885,7.312 5.184,3.934 6.53,0 0,0 z m 15.8,-8.132 -6.259,15.291 2.907,5.539 -11.527,0 -11.589,-20.83 6.348,0 2.39,4.493 9.703,0 1.535,-4.493 6.492,0"
           id="path5051"
           style="fill:#252775;fill-opacity:1;fill-rule:nonzero;stroke:none" />
      </g>
      <g
         transform="matrix(1.25,0,0,-1.25,486.96358,411.35175)"
         id="g5053">
        <path
           d="m 0,0 -18.044,0 c 2.263,-0.375 4.155,-2.039 5.13,-3.942 l 6.217,0 0.037,-16.638 5.747,0 -0.018,16.496 8.097,0 L 9.915,0 0,0"
           id="path5055"
           style="fill:#252775;fill-opacity:1;fill-rule:nonzero;stroke:none" />
      </g>
      <g
         transform="matrix(1.25,0,0,-1.25,458.04107,431.94425)"
         id="g5057">
        <path
           d="m 0,0 c -4.027,-1.65 -8.439,-0.189 -9.856,3.264 -1.414,3.452 0.701,7.589 4.728,9.241 4.026,1.649 8.438,0.188 9.854,-3.264 C 6.14,5.788 4.026,1.651 0,0 z m 10.405,7.462 c -0.624,6.11 -6.975,10.466 -14.183,9.73 -7.21,-0.737 -12.548,-6.288 -11.924,-12.397 0.624,-6.11 6.974,-10.468 14.185,-9.73 7.209,0.737 12.547,6.287 11.922,12.397"
           id="path5059"
           style="fill:#252775;fill-opacity:1;fill-rule:nonzero;stroke:none" />
      </g>
      <g
         transform="matrix(1.25,0,0,-1.25,401.71483,414.2155)"
         id="g5061">
        <path
           d="m 0,0 4.728,0 1.915,3.061 -4.717,0 c -0.963,0 -1.993,0 -2.715,0 -0.493,0 -0.845,0 -0.936,0 -0.234,-0.362 -8.26,-12.748 -8.26,-12.748 l -39.276,0 -2.146,-3.127 43.344,0 L 0,0"
           id="path5063"
           style="fill:#252775;fill-opacity:1;fill-rule:nonzero;stroke:none" />
      </g>
      <g
         transform="matrix(1.25,0,0,-1.25,420.51608,426.91175)"
         id="g5065">
        <path
           d="M 0,0 3.885,7.312 5.184,3.934 6.53,0 0,0 z m 12.448,12.698 -11.527,0 -11.589,-20.83 6.348,0 2.39,4.493 9.703,0 1.535,-4.493 6.492,0 -6.259,15.291 2.907,5.539"
           id="path5067"
           style="fill:#252775;fill-opacity:1;fill-rule:nonzero;stroke:none" />
      </g>
      <g
         transform="matrix(1.25,0,0,-1.25,458.04107,431.94425)"
         id="g5069">
        <path
           d="m 0,0 c -4.027,-1.65 -8.439,-0.189 -9.856,3.264 -1.414,3.452 0.701,7.589 4.728,9.241 4.026,1.649 8.438,0.188 9.854,-3.264 C 6.14,5.788 4.026,1.651 0,0 z m -3.778,17.192 c -7.21,-0.737 -12.548,-6.288 -11.924,-12.397 0.624,-6.11 6.974,-10.468 14.185,-9.73 7.209,0.737 12.547,6.287 11.922,12.397 -0.624,6.11 -6.975,10.466 -14.183,9.73"
           id="path5071"
           style="fill:#252775;fill-opacity:1;fill-rule:nonzero;stroke:none" />
      </g>
      <g
         transform="matrix(1.25,0,0,-1.25,392.16482,431.16925)"
         id="g5073">
        <path
           d="m 0,0 -44.205,0 -2.146,-3.127 48.273,0 9.992,15.876 c -1.624,0 -3.429,0 -3.652,0 C 8.029,12.386 0,0 0,0"
           id="path5075"
           style="fill:#252775;fill-opacity:1;fill-rule:nonzero;stroke:none" />
      </g>
      <g
         transform="matrix(1.25,0,0,-1.25,499.35733,411.35175)"
         id="g5077">
        <path
           d="m 0,0 -27.959,0 c 2.263,-0.375 4.155,-2.039 5.13,-3.942 l 6.217,0 0.037,-16.638 5.747,0 -0.018,16.496 8.097,0 L 0,0"
           id="path5079"
           style="fill:#252775;fill-opacity:1;fill-rule:nonzero;stroke:none" />
      </g>
      <g
         transform="matrix(1.25,0,0,-1.25,388.72483,424.3655)"
         id="g5081">
        <path
           d="m 0,0 c 0.32,0.506 1.501,2.382 2.848,4.516 l -7.961,0 C -4.464,3.345 -4.097,2.019 -4.097,0.613 -4.097,0.405 -4.108,0.202 -4.123,0 -1.841,0 -0.315,0 0,0"
           id="path5083"
           style="fill:#00adef;fill-opacity:1;fill-rule:nonzero;stroke:none" />
      </g>
      <g
         transform="matrix(1.25,0,0,-1.25,398.80733,408.3105)"
         id="g5085">
        <path
           d="m 0,0 c -0.215,0.365 -0.435,0.725 -0.672,1.078 l -41.749,0 c -0.512,-0.771 -0.981,-1.576 -1.409,-2.405 l 43.009,0 L 0,0"
           id="path5087"
           style="fill:#00adef;fill-opacity:1;fill-rule:nonzero;stroke:none" />
      </g>
      <g
         transform="matrix(1.25,0,0,-1.25,360.52982,423.59925)"
         id="g5089">
        <path
           d="m 0,0 c 0,1.406 0.367,2.732 1.015,3.903 l -16.607,0 c -0.267,-1.467 -0.415,-2.973 -0.417,-4.516 2.387,0 8.966,0 16.035,0 C 0.01,-0.411 0,-0.208 0,0"
           id="path5091"
           style="fill:#00adef;fill-opacity:1;fill-rule:nonzero;stroke:none" />
      </g>
      <g
         transform="matrix(1.25,0,0,-1.25,371.87482,392.9205)"
         id="g5093">
        <path
           d="m 0,0 c -2.993,0 -5.863,-0.528 -8.523,-1.495 l 17.046,0 C 5.862,-0.528 2.992,0 0,0"
           id="path5095"
           style="fill:#00adef;fill-opacity:1;fill-rule:nonzero;stroke:none" />
      </g>
      <g
         transform="matrix(1.25,0,0,-1.25,393.81358,401.92925)"
         id="g5097">
        <path
           d="m 0,0 -35.103,0 c -0.669,-0.661 -1.306,-1.36 -1.901,-2.093 l 38.905,0 C 1.307,-1.36 0.672,-0.661 0,0"
           id="path5099"
           style="fill:#00adef;fill-opacity:1;fill-rule:nonzero;stroke:none" />
      </g>
      <g
         transform="matrix(1.25,0,0,-1.25,387.29858,396.998)"
         id="g5101">
        <path
           d="m 0,0 -24.676,0 c -1.128,-0.644 -2.203,-1.37 -3.216,-2.179 l 31.105,0 C 2.2,-1.37 1.125,-0.644 0,0"
           id="path5103"
           style="fill:#00adef;fill-opacity:1;fill-rule:nonzero;stroke:none" />
      </g>
      <g
         transform="matrix(1.25,0,0,-1.25,372.06733,412.893)"
         id="g5105">
        <path
           d="m 0,0 c 2.799,0 5.304,-1.159 6.999,-2.986 l 10.23,0 c 0.892,1.413 1.776,2.814 2.469,3.913 l -42.81,0 c -0.551,-1.254 -1.007,-2.559 -1.35,-3.913 l 17.464,0 C -5.309,-1.159 -2.801,0 0,0"
           id="path5107"
           style="fill:#00adef;fill-opacity:1;fill-rule:nonzero;stroke:none" />
      </g>
      <g
         transform="matrix(1.25,0,0,-1.25,402.81108,424.493)"
         id="g5109">
        <path
           d="m 0,0 0.338,0 0,0.034 C 0.338,0.197 0.33,0.358 0.327,0.52 L 0,0"
           id="path5111"
           style="fill:#00adef;fill-opacity:1;fill-rule:nonzero;stroke:none" />
      </g>
      <g
         transform="matrix(1.25,0,0,-1.25,343.01983,436.8155)"
         id="g5113">
        <path
           d="m 0,0 c 0.982,-2.308 2.295,-4.437 3.883,-6.332 l 38.402,0 c 1.587,1.895 2.904,4.024 3.882,6.332 L 0,0"
           id="path5115"
           style="fill:#00adef;fill-opacity:1;fill-rule:nonzero;stroke:none" />
      </g>
      <g
         transform="matrix(1.25,0,0,-1.25,371.87482,455.9805)"
         id="g5117">
        <path
           d="m 0,0 c 6.743,0 12.866,2.677 17.372,7.03 l -34.745,0 C -12.864,2.677 -6.744,0 0,0"
           id="path5119"
           style="fill:#00adef;fill-opacity:1;fill-rule:nonzero;stroke:none" />
      </g>
      <g
         transform="matrix(1.25,0,0,-1.25,395.77358,435.678)"
         id="g5121">
        <path
           d="M 0,0 4.326,0 C 5.279,2.51 5.839,5.21 5.945,8.03 L 5.053,8.03 0,0"
           id="path5123"
           style="fill:#00adef;fill-opacity:1;fill-rule:nonzero;stroke:none" />
      </g>
    </g>
  </g>
</svg>
